<svg width="28" height="29" viewBox="0 0 28 29" fill="none" xmlns="http://www.w3.org/2000/svg">
<path d="M25.8687 13.3403L24.732 12.1473L25.2031 10.5641C25.2523 10.4 25.2089 10.2219 25.0918 10.0977C24.9746 9.97346 24.7988 9.92073 24.6324 9.96058L23.7851 10.1633C21.9277 6.1028 17.9 3.5 13.4093 3.5C7.11741 3.50117 2 8.62101 2 14.9117C2 21.2048 7.11771 26.3222 13.4093 26.3222C19.7009 26.3222 24.8198 21.2045 24.8198 14.9117C24.8198 14.716 24.8128 14.525 24.8023 14.334L25.6319 14.1359C25.7983 14.0961 25.9308 13.9695 25.98 13.8055C26.0292 13.6426 25.9859 13.4645 25.8687 13.3403ZM23.8449 12.6067L24.5984 13.3989L24.2363 13.4856C24.2011 13.4903 24.1672 13.4985 24.1355 13.5102L21.4097 14.1618C21.3804 14.1664 21.3523 14.1723 21.3254 14.1817L21.0066 14.2579L20.3761 13.5864C20.259 13.4598 20.0808 13.4094 19.9156 13.4481L15.7015 14.4559C15.6757 14.4594 15.6499 14.4665 15.6253 14.4747L13.5628 14.968C13.4831 14.9891 13.3964 14.9375 13.3788 14.8543C13.3765 14.8508 13.4878 14.6727 13.4878 14.6692L18.3826 13.5032C18.392 13.5008 18.4014 13.4996 18.4096 13.4961L19.8427 13.1551C20.0092 13.1164 20.1416 12.9899 20.1908 12.8258L20.4521 11.9457L24.0485 11.0867L23.7345 12.1391C23.6853 12.3031 23.7277 12.4825 23.8449 12.6067ZM12.4437 15.0723C12.5644 15.5833 13.0214 15.9301 13.5277 15.9301C13.6097 15.9301 13.6941 15.9208 13.7796 15.9009L13.782 15.8997L15.1765 15.5657C14.9081 16.2829 14.2156 16.7962 13.4081 16.7962C12.3687 16.7962 11.5238 15.9501 11.5238 14.9118C11.5238 13.8724 12.3699 13.0274 13.4081 13.0274C13.8347 13.0274 14.2413 13.1728 14.5671 13.427L13.264 13.7376C12.9769 13.8056 12.7249 13.9907 12.5726 14.245C12.4191 14.497 12.3734 14.7946 12.4437 15.0723ZM15.6546 13.168C15.2198 12.6079 14.5858 12.2293 13.8874 12.1098V11.4547H12.93V12.1098C11.7464 12.3114 10.8101 13.2489 10.6073 14.4337H9.95106V15.3922H10.6073C10.8089 16.5758 11.7464 17.5122 12.93 17.7149V18.3712H13.8874V17.7149C15.0932 17.5087 16.046 16.536 16.223 15.3172L18.1472 14.8567C18.1472 14.8754 18.1484 14.8942 18.1484 14.9129C18.1484 17.525 16.0238 19.6508 13.4093 19.6508C10.7936 19.6508 8.66655 17.5262 8.66655 14.9129C8.66655 12.2973 10.7935 10.1702 13.4093 10.1702C15.1682 10.1702 16.7903 11.1687 17.6033 12.7038L15.6546 13.168ZM18.5608 12.4754C17.6268 10.5067 15.6053 9.21053 13.4092 9.21053C10.2661 9.21053 7.70922 11.7687 7.70922 14.9117C7.70922 18.0512 10.2662 20.6069 13.4092 20.6069C16.5499 20.6069 19.1044 18.0523 19.1044 14.9117C19.1044 14.8168 19.1021 14.7219 19.0974 14.6281L19.8673 14.4442L20.4978 15.1156C20.615 15.241 20.7884 15.2938 20.9584 15.2539L20.9959 15.2446C20.8224 19.2781 17.485 22.5079 13.4092 22.5079C9.21965 22.5079 5.80954 19.099 5.80954 14.9131C5.80954 10.7247 9.21965 7.31944 13.4092 7.31944C16.1455 7.31944 18.6088 8.74444 19.9705 11.0775L19.9599 11.0799C19.7935 11.1197 19.6611 11.2451 19.6119 11.4092L19.3505 12.2881L18.5608 12.4754ZM23.8624 14.9118C23.8624 20.6751 19.1725 25.365 13.408 25.365C7.64592 25.365 2.95601 20.6751 2.95601 14.9118C2.95601 9.14846 7.64592 4.45975 13.408 4.45975C17.458 4.45975 21.0979 6.76951 22.8346 10.3908L20.9385 10.8443C19.4374 8.06809 16.5861 6.35956 13.4091 6.35956C8.69013 6.35956 4.85222 10.1963 4.85222 14.9132C4.85222 19.6289 8.69013 23.4656 13.4091 23.4656C18.0918 23.4656 21.9063 19.6841 21.9615 15.0152L23.8553 14.5628C23.86 14.6777 23.8624 14.7934 23.8624 14.9118Z" fill="url(#paint0_linear_1590_362)"/>
<defs>
<linearGradient id="paint0_linear_1590_362" x1="14" y1="3.5" x2="14" y2="26.3222" gradientUnits="userSpaceOnUse">
<stop stop-color="#D8C67F"/>
<stop offset="1" stop-color="#AE8041"/>
</linearGradient>
</defs>
</svg>
