<svg width="28" height="29" viewBox="0 0 28 29" fill="none" xmlns="http://www.w3.org/2000/svg">
<path d="M14.25 2.75C7.63286 2.75 2.25 8.13286 2.25 14.75C2.25 21.3671 7.63286 26.75 14.25 26.75C20.8671 26.75 26.25 21.3671 26.25 14.75C26.25 8.13286 20.8671 2.75 14.25 2.75ZM14.25 25.0357C8.57777 25.0357 3.96429 20.4222 3.96429 14.75C3.96429 9.07777 8.57777 4.46429 14.25 4.46429C19.9222 4.46429 24.5357 9.07777 24.5357 14.75C24.5357 20.4222 19.9222 25.0357 14.25 25.0357ZM11.6786 12.6073C11.6786 13.3166 12.255 13.893 12.9643 13.893H15.5357C17.19 13.893 18.5359 15.2387 18.5359 16.8931C18.5359 18.5476 17.1902 19.8933 15.5357 19.8933H15.1071V21.6076C15.1071 22.0811 14.7236 22.4647 14.25 22.4647C13.7764 22.4647 13.3929 22.0811 13.3929 21.6076V19.8933H10.8214C10.3478 19.8933 9.96429 19.5097 9.96429 19.0361C9.96429 18.5625 10.3478 18.179 10.8214 18.179H15.5359C16.2451 18.179 16.8216 17.6025 16.8216 16.8933C16.8216 16.184 16.2451 15.6076 15.5359 15.6076H12.9644C11.3102 15.6076 9.96429 14.2619 9.96429 12.6074C9.96429 10.953 11.31 9.60728 12.9644 9.60728H13.393V7.89299C13.393 7.41941 13.7766 7.03585 14.2501 7.03585C14.7237 7.03585 15.1073 7.41941 15.1073 7.89299V9.60728H17.6787C18.1523 9.60728 18.5359 9.99084 18.5359 10.4644C18.5359 10.938 18.1523 11.3216 17.6787 11.3216H12.9643C12.255 11.3216 11.6786 11.898 11.6786 12.6073Z" fill="url(#paint0_linear_1590_367)"/>
<defs>
<linearGradient id="paint0_linear_1590_367" x1="2.25" y1="14.75" x2="26.25" y2="14.75" gradientUnits="userSpaceOnUse">
<stop stop-color="#D8C67F"/>
<stop offset="1" stop-color="#AE8041"/>
</linearGradient>
</defs>
</svg>
