<svg width="29" height="29" viewBox="0 0 29 29" fill="none" xmlns="http://www.w3.org/2000/svg">
<rect x="0.5" y="0.5" width="28" height="28" rx="5.25" fill="white"/>
<path d="M14.172 7.08228C10.5564 7.08228 7.61328 10.024 7.61328 13.641C7.61328 15.2497 8.20212 16.797 9.26959 17.9985C9.32723 18.0699 10.3521 19.3566 10.3521 21.3576V22.5929C10.3521 22.9913 10.5876 23.3321 10.9247 23.495V24.3294C10.9247 24.882 11.3744 25.3317 11.927 25.3317H11.9658V25.5648C11.9658 26.3942 12.6398 27.0682 13.4692 27.0682H14.8737C15.7031 27.0682 16.3772 26.3942 16.3772 25.5648V25.3317H16.416C16.9685 25.3317 17.4183 24.882 17.4183 24.3294V23.495C17.7553 23.3334 17.9909 22.9913 17.9909 22.5929V21.3576C17.9909 19.3091 19.0659 18.0075 19.0684 18.0049C20.1408 16.8034 20.7297 15.2536 20.7297 13.6413C20.7297 10.0257 17.7879 7.0826 14.1709 7.0826L14.172 7.08228ZM16.9885 22.5927H11.3557V21.8585H16.9885V22.5927ZM15.3748 25.5645C15.3748 25.8402 15.1505 26.0657 14.8736 26.0657H13.4691C13.1935 26.0657 12.968 25.8402 12.968 25.5645V25.3315H15.3748V25.5645ZM11.9269 24.3292V23.595H16.4159V24.3292H11.9269ZM18.3127 17.3458C18.2626 17.4047 17.1613 18.7177 17.0072 20.8563H11.3379C11.1825 18.7176 10.0812 17.4045 10.0311 17.3458C10.0286 17.3433 10.0261 17.3408 10.0236 17.3383C9.11531 16.3197 8.61541 15.008 8.61541 13.6425C8.61541 10.5779 11.1086 8.08604 14.1718 8.08604C17.2351 8.08604 19.7283 10.5792 19.7283 13.6425C19.7283 15.0081 19.2284 16.3211 18.3138 17.3473L18.3127 17.3458Z" fill="url(#paint0_linear_1577_43)"/>
<path d="M16.1602 9.4526C15.9097 9.33608 15.6102 9.44508 15.495 9.69565C15.3784 9.94623 15.4874 10.2444 15.738 10.3609C16.7604 10.8358 17.5058 11.7328 17.7815 12.8228C17.8391 13.0496 18.0433 13.2012 18.2676 13.2012C18.3077 13.2012 18.3502 13.1962 18.3916 13.1862C18.6597 13.1185 18.8226 12.8454 18.7549 12.5773C18.4041 11.1941 17.4594 10.054 16.1615 9.45261L16.1602 9.4526Z" fill="url(#paint1_linear_1577_43)"/>
<path d="M24.5148 16.6143L21.9489 15.7799C21.6871 15.6947 21.4027 15.8388 21.3175 16.1019C21.2323 16.365 21.3764 16.6481 21.6395 16.7333L24.2053 17.5677C24.2567 17.584 24.3081 17.5928 24.3607 17.5928C24.5724 17.5928 24.7679 17.4575 24.8368 17.247C24.922 16.9839 24.7779 16.7008 24.5148 16.6156L24.5148 16.6143Z" fill="url(#paint2_linear_1577_43)"/>
<path d="M21.7946 11.8055C21.8459 11.8055 21.8973 11.7979 21.9499 11.7804L24.5158 10.946C24.7789 10.8608 24.923 10.5776 24.8378 10.3145C24.7526 10.0514 24.4694 9.90733 24.2063 9.99252L21.6404 10.8269C21.3773 10.9121 21.2333 11.1953 21.3184 11.4584C21.3874 11.6701 21.5841 11.8042 21.7945 11.8042L21.7946 11.8055Z" fill="url(#paint3_linear_1577_43)"/>
<path d="M20.0633 4.81959L18.4771 7.0021C18.3143 7.22637 18.3644 7.53959 18.5874 7.70246C18.6763 7.76761 18.7791 7.79768 18.8818 7.79768C19.0372 7.79768 19.19 7.72627 19.2877 7.59096L20.8739 5.40845C21.0367 5.18418 20.9866 4.87096 20.7636 4.70809C20.5394 4.54522 20.2261 4.59533 20.0645 4.81834L20.0633 4.81959Z" fill="url(#paint4_linear_1577_43)"/>
<path d="M14.172 6.26924C14.4489 6.26924 14.6732 6.04497 14.6732 5.76809V3.06939C14.6732 2.7925 14.4489 2.56824 14.172 2.56824C13.8952 2.56824 13.6709 2.7925 13.6709 3.06939V5.76809C13.6709 6.04497 13.8952 6.26924 14.172 6.26924Z" fill="url(#paint5_linear_1577_43)"/>
<path d="M9.46272 7.79878C9.56546 7.79878 9.66819 7.76746 9.75715 7.70356C9.98141 7.54069 10.0303 7.22746 9.8674 7.0032L8.28126 4.81944C8.11839 4.59643 7.80516 4.54631 7.58091 4.70919C7.35665 4.87206 7.30778 5.18529 7.47065 5.40955L9.05679 7.59331C9.15451 7.72862 9.30736 7.80003 9.46271 7.80003L9.46272 7.79878Z" fill="url(#paint6_linear_1577_43)"/>
<path d="M6.70476 10.8282L4.13888 9.99374C3.87577 9.90854 3.59263 10.0526 3.50741 10.3157C3.42222 10.5788 3.5663 10.862 3.8294 10.9472L6.39528 11.7816C6.44665 11.7979 6.49927 11.8067 6.55064 11.8067C6.76238 11.8067 6.95907 11.6714 7.02674 11.4609C7.11194 11.1978 6.96786 10.9146 6.70476 10.8294L6.70476 10.8282Z" fill="url(#paint7_linear_1577_43)"/>
<path d="M6.39528 15.781L3.8294 16.6154C3.56629 16.7006 3.42222 16.9838 3.50741 17.2469C3.57632 17.4586 3.77302 17.5927 3.98351 17.5927C4.03488 17.5927 4.0875 17.5852 4.13887 17.5676L6.70475 16.7332C6.96786 16.648 7.11193 16.3649 7.02674 16.1017C6.94155 15.8386 6.65966 15.6946 6.39528 15.7797L6.39528 15.781Z" fill="url(#paint8_linear_1577_43)"/>
<defs>
<linearGradient id="paint0_linear_1577_43" x1="14.1715" y1="7.08228" x2="14.1715" y2="27.0682" gradientUnits="userSpaceOnUse">
<stop stop-color="#D8C67F"/>
<stop offset="1" stop-color="#AE8041"/>
</linearGradient>
<linearGradient id="paint1_linear_1577_43" x1="17.1092" y1="9.40588" x2="17.1092" y2="13.2012" gradientUnits="userSpaceOnUse">
<stop stop-color="#D8C67F"/>
<stop offset="1" stop-color="#AE8041"/>
</linearGradient>
<linearGradient id="paint2_linear_1577_43" x1="23.0771" y1="15.7554" x2="23.0771" y2="17.5928" gradientUnits="userSpaceOnUse">
<stop stop-color="#D8C67F"/>
<stop offset="1" stop-color="#AE8041"/>
</linearGradient>
<linearGradient id="paint3_linear_1577_43" x1="23.0781" y1="9.96802" x2="23.0781" y2="11.8055" gradientUnits="userSpaceOnUse">
<stop stop-color="#D8C67F"/>
<stop offset="1" stop-color="#AE8041"/>
</linearGradient>
<linearGradient id="paint4_linear_1577_43" x1="19.6755" y1="4.6123" x2="19.6755" y2="7.79768" gradientUnits="userSpaceOnUse">
<stop stop-color="#D8C67F"/>
<stop offset="1" stop-color="#AE8041"/>
</linearGradient>
<linearGradient id="paint5_linear_1577_43" x1="14.172" y1="2.56824" x2="14.172" y2="6.26924" gradientUnits="userSpaceOnUse">
<stop stop-color="#D8C67F"/>
<stop offset="1" stop-color="#AE8041"/>
</linearGradient>
<linearGradient id="paint6_linear_1577_43" x1="8.66903" y1="4.6134" x2="8.66903" y2="7.80003" gradientUnits="userSpaceOnUse">
<stop stop-color="#D8C67F"/>
<stop offset="1" stop-color="#AE8041"/>
</linearGradient>
<linearGradient id="paint7_linear_1577_43" x1="5.26708" y1="9.96924" x2="5.26708" y2="11.8067" gradientUnits="userSpaceOnUse">
<stop stop-color="#D8C67F"/>
<stop offset="1" stop-color="#AE8041"/>
</linearGradient>
<linearGradient id="paint8_linear_1577_43" x1="5.26708" y1="15.7552" x2="5.26708" y2="17.5927" gradientUnits="userSpaceOnUse">
<stop stop-color="#D8C67F"/>
<stop offset="1" stop-color="#AE8041"/>
</linearGradient>
</defs>
</svg>
