<svg width="28" height="29" viewBox="0 0 28 29" fill="none" xmlns="http://www.w3.org/2000/svg">
<path d="M13.397 5.92781C12.3696 5.55087 11.9097 4.35265 12.6421 3.46009C12.8511 3.20522 13.4009 2.61441 13.7212 2.50114C14.1284 2.46794 14.7485 3.1691 14.977 3.45912C15.7221 4.4093 15.271 5.48252 14.2153 5.92586C14.6782 5.93953 14.8852 6.045 14.9653 6.5235H16.0951C16.1752 6.27351 16.2201 5.89851 16.5199 5.82234V5.82332C16.8978 5.79012 17.2767 5.78523 17.6547 5.80965C17.9681 5.84871 18.0365 6.17486 18.098 6.43853C18.5101 8.21877 17.4867 9.35647 16.601 10.7764C18.0336 11.3213 17.7914 13.1377 16.2797 13.3389V13.3379C16.2562 15.4531 16.6869 17.5488 17.5424 19.4833C17.763 19.9725 18.0794 20.4461 18.2923 20.9246L18.3041 20.95L18.3031 20.949C18.9105 21.0203 19.4339 21.41 19.6761 21.9705C19.8587 22.4246 19.8528 24.0652 19.6575 24.5289C20.8186 24.6998 20.8499 26.2887 19.7571 26.4703C19.5179 26.4967 19.2767 26.5045 19.0365 26.4918H8.5972C8.22123 26.4918 7.76812 26.5543 7.43805 26.3346C6.69784 25.8434 6.91951 24.7672 7.92339 24.5846L7.92046 24.5699C7.69683 23.2897 7.57574 21.242 9.2837 20.9508C10.7016 18.6686 11.4292 16.0251 11.3784 13.3387C9.83056 13.1688 9.72802 11.1053 11.0698 10.7763C10.3286 9.28606 9.05811 8.47063 9.56592 6.4511C9.75635 5.69527 9.85399 5.80072 10.5141 5.80659C11.3032 5.8144 11.2729 5.67769 11.5229 6.52435H12.6626C12.769 6.07026 12.9146 5.93659 13.397 5.92781ZM13.8315 3.17287C13.479 3.48537 12.9341 3.90626 12.9087 4.417C12.898 4.66699 12.9917 4.91016 13.1665 5.08886C13.3423 5.26756 13.5845 5.36425 13.8345 5.35838C14.0845 5.35154 14.3208 5.24119 14.4868 5.05368C14.6518 4.86619 14.7329 4.61814 14.7085 4.36912C14.6577 3.83008 14.1323 3.56252 13.8315 3.17287ZM10.2281 6.4403C9.83945 7.577 10.1851 8.15219 10.7408 9.04574C11.0875 9.60336 11.4498 10.1551 11.7779 10.7244H15.8725C16.0415 10.4412 16.2261 10.1648 16.4018 9.88555L16.9878 8.93245C17.5229 8.09554 17.7299 7.46763 17.4477 6.4413H16.7729C16.729 6.63466 16.686 6.95984 16.5112 7.07996C16.31 7.21863 14.853 7.16199 14.6421 7.11023C14.3843 7.04774 14.3716 6.73914 14.3442 6.52627H13.2945C13.2593 6.70107 13.23 6.97841 13.0621 7.07899C12.8326 7.21668 11.401 7.16687 11.1998 7.10145C10.9576 7.02332 10.9098 6.64443 10.8248 6.44131V6.44033C10.6275 6.40322 10.4254 6.40319 10.2281 6.4403ZM11.2955 11.3592C10.9654 11.4451 10.7496 11.7596 10.7877 12.0975C10.8258 12.4363 11.108 12.6941 11.4478 12.7039C11.7476 12.7215 12.0562 12.7058 12.3579 12.7058H15.6244C15.8675 12.7058 16.1214 12.7234 16.3626 12.7058C17.1292 12.4197 17.0482 11.3982 16.2122 11.3611C15.9124 11.3475 15.6068 11.3602 15.306 11.3602H12.0208C11.7806 11.3592 11.5337 11.3455 11.2955 11.3592ZM12.2437 13.3386H12.0093L12.0083 13.3396C12.064 15.7693 11.5035 18.1735 10.3795 20.3287C10.2799 20.5143 10.1646 20.6988 10.0797 20.8922H17.562C17.3784 20.5045 17.146 20.1461 16.9693 19.7526L16.9683 19.7516C16.0748 17.7331 15.6255 15.5467 15.6509 13.3397L12.2437 13.3386ZM10.6881 21.5065H10.0484C8.91954 21.5094 8.4674 21.9371 8.4625 23.066C8.45664 24.441 8.58066 24.5884 9.95074 24.5855H16.9876L17.9505 24.5875C18.7151 24.5875 19.1731 24.5474 19.175 23.6275L19.1711 23.0094C19.1682 21.6012 18.4817 21.5045 17.2454 21.5055L10.6881 21.5065ZM19.2846 25.2006H9.27108C8.97129 25.2006 7.93224 25.103 7.72717 25.3168C7.33655 25.725 7.93224 25.8588 8.26133 25.8491H18.4164C18.8958 25.8491 19.804 26.0541 19.9368 25.5151C19.8441 25.1479 19.6079 25.1831 19.2846 25.2006Z" fill="url(#paint0_linear_1590_368)"/>
<defs>
<linearGradient id="paint0_linear_1590_368" x1="7" y1="14.5" x2="20.5532" y2="14.5" gradientUnits="userSpaceOnUse">
<stop stop-color="#D8C67F"/>
<stop offset="1" stop-color="#AE8041"/>
</linearGradient>
</defs>
</svg>
