<svg width="28" height="29" viewBox="0 0 28 29" fill="none" xmlns="http://www.w3.org/2000/svg">
<path fill-rule="evenodd" clip-rule="evenodd" d="M11.8505 18.3624L10.3733 19.2155C10.7141 19.8245 10.4842 20.5878 9.90242 20.8973L4.9092 23.7791C4.31429 24.1229 3.54192 23.9021 3.22533 23.3132L2.16357 21.4751C1.82578 20.8903 2.02846 20.1401 2.61227 19.8033L7.62563 16.9094C8.20843 16.5726 8.95863 16.7713 9.29843 17.3541L10.7766 16.5011C10.3602 15.3385 10.3279 14.1033 10.6345 12.9588C11.4865 9.7807 14.7544 7.89404 17.9325 8.74509C21.1077 9.59611 22.9962 12.8651 22.1451 16.0424C21.7509 17.5145 20.794 18.8363 19.3682 19.6603V19.6613C16.8555 21.1112 13.6925 20.5325 11.8502 18.3626L11.8505 18.3624ZM16.3889 12.8096C15.4552 12.8096 14.6979 13.5668 14.6979 14.5005C14.6979 15.4342 15.4552 16.1915 16.3889 16.1915C17.3226 16.1915 18.0798 15.4342 18.0798 14.5005C18.0798 13.5668 17.3226 12.8096 16.3889 12.8096ZM17.1371 13.7524C16.4726 13.0879 15.3312 13.5608 15.3312 14.5005C15.3312 15.4402 16.4726 15.9132 17.1371 15.2487C17.5505 14.8353 17.5505 14.1658 17.1371 13.7524ZM16.3889 11.6813C14.5437 11.6813 12.8861 12.7299 12.0774 14.3563C12.034 14.444 12.029 14.5458 12.0754 14.6396C12.4757 15.4473 13.0948 16.1259 13.855 16.5977C16.2629 18.0931 19.437 17.1856 20.7014 14.6447C20.7447 14.5569 20.7498 14.4551 20.7034 14.3613C19.8987 12.7339 18.2341 11.6813 16.3889 11.6813ZM18.59 12.9397C16.5522 11.6753 13.8611 12.3891 12.7135 14.5005C13.862 16.6119 16.5521 17.3257 18.59 16.0614C19.2071 15.6782 19.7173 15.1398 20.0642 14.5005C19.7173 13.8613 19.2071 13.3228 18.59 12.9397ZM21.7764 2.59442C21.7149 2.53291 21.6372 2.50064 21.5505 2.49963H10.2262C8.76615 2.49963 7.57339 3.69247 7.57339 5.15241V15.278C7.57339 15.4524 7.71556 15.5946 7.89001 15.5946C8.06446 15.5946 8.20663 15.4524 8.20663 15.278L8.20562 5.15345C8.20562 4.04329 9.11511 3.1328 10.2263 3.1328H21.2349V6.95025C21.2349 7.12469 21.3771 7.26687 21.5515 7.26687H25.369V23.8475C25.369 24.9576 24.4595 25.8681 23.3483 25.8681H10.2261C9.11498 25.8681 8.20549 24.9586 8.20549 23.8475V23.7779C8.20549 23.6034 8.06332 23.4613 7.88887 23.4613C7.71443 23.4613 7.57225 23.6034 7.57225 23.7779V23.8475C7.57225 25.3075 8.76509 26.5002 10.225 26.5002H23.3472C24.8072 26.5002 26 25.3074 26 23.8475V6.95015C26 6.86343 25.9657 6.78377 25.9052 6.72428L21.7764 2.59442ZM24.9214 6.63463H21.8672V3.58046L24.9214 6.63463ZM11.0217 17.0867L9.61211 17.9004L10.0558 18.6698L11.4644 17.8571C11.298 17.6101 11.1508 17.354 11.0217 17.0867ZM21.5345 15.8798C22.2958 13.0363 20.6119 10.1184 17.7684 9.35613C14.9259 8.59486 12.006 10.2807 11.2447 13.1222C10.4835 15.9657 12.1704 18.8847 15.0108 19.6459C17.8513 20.4071 20.7722 18.7223 21.5345 15.8798ZM8.76929 17.6988C8.56259 17.3771 8.26514 17.2854 7.92232 17.4669L2.9482 20.3386C2.66485 20.516 2.53884 20.8346 2.69915 21.1412L3.77097 22.9995C3.94844 23.2859 4.29327 23.4119 4.59275 23.2334L9.60611 20.3395C9.88946 20.1762 9.98625 19.8082 9.8239 19.5269L8.76929 17.6988Z" fill="url(#paint0_linear_1590_369)"/>
<defs>
<linearGradient id="paint0_linear_1590_369" x1="2" y1="14.4999" x2="26" y2="14.4999" gradientUnits="userSpaceOnUse">
<stop stop-color="#D8C67F"/>
<stop offset="1" stop-color="#AE8041"/>
</linearGradient>
</defs>
</svg>
